<?xml version="1.0" encoding="UTF-8"?>
<svg id="Layer_2" data-name="Layer 2" xmlns="http://www.w3.org/2000/svg" xmlns:xlink="http://www.w3.org/1999/xlink" viewBox="0 0 731.09 171.88">
  <defs>
    <style>
      .cls-1 {
        fill: url(#linear-gradient);
      }

      .cls-1, .cls-2, .cls-3 {
        stroke-width: 0px;
      }

      .cls-2 {
        fill: #aaafbe;
      }

      .cls-4 {
        stroke: rgba(70, 67, 103, .75);
      }

      .cls-4, .cls-3, .cls-5 {
        fill: none;
      }

      .cls-5 {
        stroke: #4f6edf;
        stroke-miterlimit: 10;
        stroke-width: 1.5px;
      }

      .cls-6 {
        clip-path: url(#clippath);
      }
    </style>
    <clipPath id="clippath">
      <rect class="cls-3" x="43.09" y="18.88" width="688" height="153"/>
    </clipPath>
    <linearGradient id="linear-gradient" x1="386.73" y1="109.91" x2="386.73" y2="11.29" gradientTransform="translate(0 172.9) scale(1 -1)" gradientUnits="userSpaceOnUse">
      <stop offset="0" stop-color="#4f6edf" stop-opacity=".4"/>
      <stop offset=".46" stop-color="#4f6edf" stop-opacity=".2"/>
      <stop offset="1" stop-color="#4f6edf" stop-opacity="0"/>
    </linearGradient>
  </defs>
  <g>
    <path class="cls-2" d="m3.12,171.8v-11.8h.46v11.8h-.46Zm2.52-9.77c-.29-.14-.64-.27-1.06-.39-.42-.12-.84-.18-1.26-.18-.65,0-1.18.16-1.57.49-.39.33-.59.74-.59,1.23,0,.37.11.69.34.94.22.24.52.45.88.63.36.17.75.33,1.16.49.33.12.65.26.97.41.33.15.62.33.88.55.26.21.47.48.62.8.16.32.24.71.24,1.18,0,.55-.13,1.04-.39,1.47-.26.42-.63.75-1.09.98-.47.23-1.01.35-1.62.35-.49,0-.95-.06-1.36-.18-.4-.12-.76-.26-1.06-.42-.3-.17-.54-.31-.71-.42l.32-.56c.21.15.45.3.74.45.3.15.62.28.97.38s.69.15,1.04.15c.4,0,.79-.08,1.16-.24.38-.16.7-.4.94-.71.25-.33.38-.74.38-1.23s-.12-.86-.35-1.15c-.23-.3-.53-.54-.9-.73-.36-.19-.75-.35-1.16-.5-.32-.12-.63-.25-.95-.38-.32-.14-.61-.3-.87-.49-.26-.2-.47-.43-.63-.7-.15-.27-.22-.6-.22-.98,0-.48.12-.89.36-1.25.24-.35.57-.63.98-.83.42-.21.9-.31,1.43-.32.47,0,.94.06,1.41.18.49.12.91.27,1.26.46l-.27.53Zm6.47-.32h2.04v9.14h-.69v-8.48h-1.36v-.66Zm7.97,9.21c-.61,0-1.15-.12-1.62-.35-.48-.24-.88-.58-1.2-1.01-.33-.43-.58-.92-.76-1.48-.17-.57-.25-1.18-.25-1.82s.08-1.27.25-1.83c.17-.57.42-1.06.74-1.48.33-.42.73-.74,1.2-.97.48-.23,1.02-.35,1.64-.35s1.14.12,1.61.36c.48.23.88.57,1.2.99.33.42.57.91.74,1.47.18.56.27,1.16.27,1.81s-.09,1.26-.27,1.83c-.17.56-.42,1.05-.74,1.48-.33.42-.73.75-1.2.99-.47.23-1,.35-1.61.35Zm-.01-.66c.62,0,1.16-.16,1.62-.48.48-.33.84-.79,1.11-1.39.27-.61.41-1.32.41-2.14s-.14-1.52-.41-2.11c-.26-.6-.63-1.06-1.11-1.39-.47-.33-1.01-.49-1.62-.48-.62,0-1.16.15-1.62.48-.47.33-.83.79-1.09,1.39-.26.6-.4,1.31-.41,2.13,0,.81.14,1.52.41,2.13.26.6.63,1.06,1.09,1.39.47.32,1.01.48,1.62.48Z"/>
    <path class="cls-4" d="m43.09,165.9h687.71"/>
  </g>
  <g>
    <path class="cls-2" d="m3.12,131.8v-11.8h.46v11.8h-.46Zm2.52-9.77c-.29-.14-.64-.27-1.06-.39-.42-.12-.84-.18-1.26-.18-.65,0-1.18.16-1.57.49-.39.33-.59.74-.59,1.23,0,.37.11.69.34.94.22.24.52.45.88.63.36.17.75.33,1.16.49.33.12.65.26.97.41.33.15.62.33.88.55.26.22.47.48.62.8.16.32.24.71.24,1.18,0,.55-.13,1.04-.39,1.47-.26.42-.63.75-1.09.98-.47.23-1.01.35-1.62.35-.49,0-.95-.06-1.36-.18-.4-.12-.76-.26-1.06-.42-.3-.17-.54-.31-.71-.42l.32-.56c.21.15.45.3.74.45.3.15.62.28.97.38s.69.15,1.04.15c.4,0,.79-.08,1.16-.24.38-.16.7-.4.94-.71.25-.33.38-.74.38-1.23s-.12-.86-.35-1.15c-.23-.3-.53-.54-.9-.73-.36-.19-.75-.35-1.16-.5-.32-.12-.63-.25-.95-.38-.32-.14-.61-.3-.87-.49-.26-.2-.47-.43-.63-.7-.15-.27-.22-.6-.22-.98,0-.48.12-.89.36-1.25.24-.36.57-.63.98-.83.42-.2.9-.31,1.43-.32.47,0,.94.06,1.41.18.49.12.91.28,1.26.46l-.27.53Zm6.43,8.82c.6-.58,1.17-1.15,1.72-1.71.56-.57,1.06-1.12,1.5-1.65.44-.54.78-1.06,1.04-1.57.26-.5.39-.99.39-1.47,0-.41-.07-.76-.2-1.04-.12-.28-.28-.5-.49-.67-.2-.18-.42-.3-.66-.38-.23-.08-.46-.13-.69-.13-.4,0-.73.07-.99.21-.26.13-.47.3-.63.52-.15.22-.26.44-.32.69-.07.23-.1.46-.1.67,0,.33.05.62.14.88.09.26.23.49.41.67l-.42.38c-.17-.15-.31-.32-.43-.52-.12-.21-.21-.43-.28-.67-.06-.24-.08-.49-.08-.73,0-.5.11-.96.32-1.37.21-.42.53-.75.95-.99.42-.25.93-.38,1.53-.38.53,0,.99.13,1.39.38.4.24.71.58.92,1.01.22.42.34.89.34,1.41s-.12,1.02-.36,1.53c-.24.5-.56,1-.97,1.5-.39.5-.82.98-1.29,1.47-.46.49-.91.97-1.34,1.44l-.27-.14h4.73v.66h-5.85Zm10.69.07c-.61,0-1.15-.12-1.62-.35-.48-.24-.88-.58-1.2-1.01-.33-.43-.58-.92-.76-1.48-.17-.57-.25-1.18-.25-1.82s.08-1.27.25-1.83c.17-.57.42-1.06.74-1.48.33-.42.73-.74,1.2-.97.48-.23,1.02-.35,1.64-.35s1.14.12,1.61.36c.48.23.88.57,1.2.99.33.42.57.91.74,1.47.18.56.27,1.16.27,1.81s-.09,1.26-.27,1.83c-.17.56-.42,1.05-.74,1.48-.33.42-.73.75-1.2.99-.47.23-1,.35-1.61.35Zm-.01-.66c.62,0,1.16-.16,1.62-.48.48-.33.84-.79,1.11-1.39.27-.61.41-1.32.41-2.14s-.14-1.52-.41-2.11c-.26-.6-.63-1.06-1.11-1.39-.47-.33-1.01-.49-1.62-.48-.62,0-1.16.15-1.62.48-.47.33-.83.79-1.09,1.39-.26.6-.4,1.31-.41,2.13,0,.81.14,1.52.41,2.13.26.6.63,1.06,1.09,1.39.47.32,1.01.48,1.62.48Z"/>
    <path class="cls-4" d="m43.09,125.9h687.71"/>
  </g>
  <g>
    <path class="cls-2" d="m3.12,11.8V0h.46v11.8h-.46ZM5.64,2.03c-.29-.14-.64-.27-1.06-.39s-.84-.18-1.26-.18c-.65,0-1.18.16-1.57.49-.39.33-.59.74-.59,1.23,0,.37.11.69.34.94.22.24.52.45.88.63.36.17.75.33,1.16.49.33.12.65.26.97.41.33.15.62.33.88.55.26.21.47.48.62.8.16.32.24.71.24,1.18,0,.55-.13,1.04-.39,1.47-.26.42-.63.75-1.09.98s-1.01.35-1.62.35c-.49,0-.95-.06-1.36-.18-.4-.12-.76-.26-1.06-.42-.3-.17-.54-.31-.71-.42l.32-.56c.21.15.45.3.74.45.3.15.62.28.97.38s.69.15,1.04.15c.4,0,.79-.08,1.16-.24.38-.16.7-.4.94-.71.25-.33.38-.74.38-1.23s-.12-.86-.35-1.15c-.23-.3-.53-.54-.9-.73-.36-.19-.75-.35-1.16-.5-.32-.12-.63-.25-.95-.38-.32-.14-.61-.3-.87-.49-.26-.2-.47-.43-.63-.7-.15-.27-.22-.6-.22-.98,0-.48.12-.89.36-1.25.24-.35.57-.63.98-.83.42-.21.9-.31,1.43-.32.47,0,.94.06,1.41.18.49.12.91.28,1.26.46l-.27.53Zm6.26,6.02c0-.46.09-.86.27-1.22.19-.36.43-.67.73-.92.3-.25.63-.43.98-.55-.35-.15-.63-.37-.85-.66-.21-.3-.32-.64-.32-1.04s.09-.76.27-1.06c.19-.31.44-.55.77-.73.34-.19.72-.28,1.16-.28s.81.09,1.13.28c.33.18.58.42.76.73.19.31.28.66.28,1.05s-.11.75-.32,1.04c-.21.29-.49.51-.83.67.36.11.7.29,1.01.55s.56.56.74.92c.19.35.28.76.28,1.22,0,.52-.14,1.01-.42,1.46-.27.44-.63.79-1.09,1.06-.46.26-.97.39-1.54.39s-1.07-.13-1.53-.39c-.45-.27-.81-.63-1.08-1.06-.26-.45-.39-.93-.39-1.46Zm.69-.03c0,.42.1.81.31,1.18.21.35.48.64.83.85.35.21.74.32,1.16.32s.84-.11,1.19-.32c.36-.21.65-.5.87-.85.21-.36.32-.76.32-1.18s-.11-.82-.32-1.16c-.21-.35-.49-.63-.84-.84-.35-.21-.75-.32-1.19-.32s-.81.11-1.16.32c-.35.21-.64.49-.85.84-.21.35-.31.73-.31,1.16Zm.77-4.28c0,.39.15.72.45.99.31.26.68.39,1.11.39s.77-.13,1.06-.39c.29-.27.43-.6.43-.99,0-.47-.14-.84-.43-1.13-.29-.29-.64-.43-1.06-.43s-.8.14-1.11.43c-.3.29-.45.67-.45,1.13Zm9.5,7.18c-.61,0-1.15-.12-1.62-.35-.48-.24-.88-.58-1.2-1.01-.33-.43-.58-.92-.76-1.48-.17-.57-.25-1.18-.25-1.82s.08-1.27.25-1.83c.17-.57.42-1.06.74-1.48.33-.42.73-.74,1.2-.97.48-.23,1.02-.35,1.64-.35s1.14.12,1.61.36c.48.23.88.56,1.2.99.33.42.57.91.74,1.47.18.56.27,1.16.27,1.81s-.09,1.26-.27,1.83c-.17.56-.42,1.05-.74,1.48-.33.42-.73.75-1.2.99-.47.23-1,.35-1.61.35Zm-.01-.66c.62,0,1.16-.16,1.62-.48.48-.33.84-.79,1.11-1.39.27-.61.41-1.32.41-2.14s-.14-1.52-.41-2.11c-.26-.6-.63-1.06-1.11-1.39-.47-.33-1.01-.49-1.62-.48-.62,0-1.16.15-1.62.48-.47.33-.83.79-1.09,1.39-.26.6-.4,1.31-.41,2.13,0,.81.14,1.52.41,2.13.26.6.63,1.06,1.09,1.39.47.32,1.01.48,1.62.48Z"/>
    <path class="cls-4" d="m43.09,5.9h687.71"/>
  </g>
  <g>
    <path class="cls-2" d="m3.12,51.8v-11.8h.46v11.8h-.46Zm2.52-9.77c-.29-.14-.64-.27-1.06-.39-.42-.12-.84-.18-1.26-.18-.65,0-1.18.16-1.57.49-.39.33-.59.74-.59,1.23,0,.37.11.69.34.94.22.24.52.45.88.63.36.17.75.33,1.16.49.33.12.65.26.97.41.33.15.62.33.88.55.26.21.47.48.62.8.16.32.24.71.24,1.18,0,.55-.13,1.04-.39,1.47-.26.42-.63.75-1.09.98s-1.01.35-1.62.35c-.49,0-.95-.06-1.36-.18-.4-.12-.76-.26-1.06-.42-.3-.17-.54-.31-.71-.42l.32-.56c.21.15.45.3.74.45.3.15.62.28.97.38s.69.15,1.04.15c.4,0,.79-.08,1.16-.24.38-.16.7-.4.94-.71.25-.33.38-.74.38-1.23s-.12-.86-.35-1.15c-.23-.3-.53-.54-.9-.73-.36-.19-.75-.35-1.16-.5-.32-.12-.63-.25-.95-.38-.32-.14-.61-.3-.87-.49-.26-.2-.47-.43-.63-.7-.15-.27-.22-.6-.22-.98,0-.48.12-.89.36-1.25.24-.35.57-.63.98-.83.42-.21.9-.31,1.43-.32.47,0,.94.06,1.41.18.49.12.91.28,1.26.46l-.27.53Zm9.35,8.93c-.56,0-1.07-.14-1.54-.41-.46-.27-.82-.64-1.09-1.12-.27-.48-.41-1.02-.41-1.64,0-.66.13-1.28.39-1.85.27-.57.63-1.1,1.06-1.6.44-.49.92-.95,1.44-1.37.53-.42,1.06-.81,1.58-1.18l.45.52c-.77.46-1.44.93-1.99,1.43-.55.49-.99.97-1.33,1.46-.33.49-.55.95-.66,1.4l-.18-.04c.26-.46.6-.8,1.02-1.04.42-.24.9-.36,1.44-.36.5,0,.97.13,1.39.39.43.25.77.59,1.04,1.02.26.43.39.91.39,1.46s-.14,1.06-.42,1.51c-.27.44-.63.78-1.09,1.04-.46.25-.96.38-1.5.38Zm-.03-.62c.43,0,.82-.1,1.18-.29.35-.21.63-.48.84-.83.21-.35.32-.75.32-1.19s-.11-.83-.32-1.16c-.21-.35-.49-.62-.84-.81-.35-.21-.75-.31-1.18-.31s-.82.1-1.18.29c-.35.19-.63.44-.84.77-.21.32-.31.68-.31,1.09v.15c0,.41.1.79.31,1.15.21.35.49.62.84.83.35.21.75.31,1.18.31Zm8.11.57c-.61,0-1.15-.12-1.62-.35-.48-.24-.88-.58-1.2-1.01-.33-.43-.58-.92-.76-1.48-.17-.57-.25-1.18-.25-1.82s.08-1.27.25-1.83c.17-.57.42-1.06.74-1.48.33-.42.73-.74,1.2-.97.48-.23,1.02-.35,1.64-.35s1.14.12,1.61.36c.48.23.88.56,1.2.99.33.42.57.91.74,1.47.18.56.27,1.16.27,1.81s-.09,1.26-.27,1.83c-.17.56-.42,1.05-.74,1.48-.33.42-.73.75-1.2.99-.47.23-1,.35-1.61.35Zm-.01-.66c.62,0,1.16-.16,1.62-.48.48-.33.84-.79,1.11-1.39.27-.61.41-1.32.41-2.14s-.14-1.52-.41-2.11c-.26-.6-.63-1.06-1.11-1.39-.47-.33-1.01-.49-1.62-.48-.62,0-1.16.15-1.62.48-.47.33-.83.79-1.09,1.39-.26.6-.4,1.31-.41,2.13,0,.81.14,1.52.41,2.13.26.6.63,1.06,1.09,1.39.47.32,1.01.48,1.62.48Z"/>
    <path class="cls-4" d="m43.09,45.9h687.71"/>
  </g>
  <g>
    <path class="cls-2" d="m3.12,91.8v-11.8h.46v11.8h-.46Zm2.52-9.77c-.29-.14-.64-.27-1.06-.39s-.84-.18-1.26-.18c-.65,0-1.18.16-1.57.49-.39.33-.59.74-.59,1.23,0,.37.11.69.34.94.22.24.52.45.88.63.36.17.75.33,1.16.49.33.12.65.26.97.41.33.15.62.33.88.55.26.21.47.48.62.8.16.32.24.71.24,1.18,0,.55-.13,1.04-.39,1.47-.26.42-.63.75-1.09.98s-1.01.35-1.62.35c-.49,0-.95-.06-1.36-.18-.4-.12-.76-.26-1.06-.42-.3-.17-.54-.31-.71-.42l.32-.56c.21.15.45.3.74.45.3.15.62.28.97.38s.69.15,1.04.15c.4,0,.79-.08,1.16-.24.38-.16.7-.4.94-.71.25-.33.38-.74.38-1.23s-.12-.86-.35-1.15c-.23-.3-.53-.54-.9-.73-.36-.19-.75-.35-1.16-.5-.32-.12-.63-.25-.95-.38-.32-.14-.61-.3-.87-.49-.26-.2-.47-.43-.63-.7-.15-.27-.22-.6-.22-.98,0-.48.12-.89.36-1.25.24-.35.57-.63.98-.83.42-.21.9-.31,1.43-.32.47,0,.94.06,1.41.18.49.12.91.28,1.26.46l-.27.53Zm5.89,6.4h0s5.32-6.83,5.32-6.83h.01v6.29h1.29v.55h-1.29v2.42h-.69v-2.42h-4.65Zm4.73-5.17l-3.65,4.68-.22-.06h3.79v-5.03l.08.41Zm6.64,7.66c-.61,0-1.15-.12-1.62-.35-.48-.24-.88-.58-1.2-1.01-.33-.43-.58-.92-.76-1.48-.17-.57-.25-1.18-.25-1.82s.08-1.27.25-1.83c.17-.57.42-1.06.74-1.48.33-.42.73-.74,1.2-.97.48-.23,1.02-.35,1.64-.35s1.14.12,1.61.36c.48.23.88.56,1.2.99.33.42.57.91.74,1.47.18.56.27,1.16.27,1.81s-.09,1.26-.27,1.83c-.17.56-.42,1.05-.74,1.48-.33.42-.73.75-1.2.99-.47.23-1,.35-1.61.35Zm-.01-.66c.62,0,1.16-.16,1.62-.48.48-.33.84-.79,1.11-1.39.27-.61.41-1.32.41-2.14s-.14-1.52-.41-2.11c-.26-.6-.63-1.06-1.11-1.39-.47-.33-1.01-.49-1.62-.48-.62,0-1.16.15-1.62.48-.47.33-.83.79-1.09,1.39-.26.6-.4,1.31-.41,2.13,0,.81.14,1.52.41,2.13.26.6.63,1.06,1.09,1.39.47.32,1.01.48,1.62.48Z"/>
    <path class="cls-4" d="m43.09,85.9h687.71"/>
  </g>
  <g class="cls-6">
    <g>
      <path class="cls-1" d="m730.37,19.32l-7.64,8.35c-7.64,8.5-22.91,24.97-38.19,46.02-15.27,20.89-30.54,45.98-45.82,41.79-15.27-4.04-30.55-37.75-45.82-56.45-15.27-18.93-30.55-22.85-45.82-12.54-15.27,10.46-30.55,35.55-45.82,41.83-15.27,6.28-30.55-6.28-45.82-8.35-15.27-2.24-30.54,6.39-45.82,16.7-15.27,10.47-30.55,23.01-45.82,12.54-15.27-10.31-30.55-44.03-45.82-43.91-15.27-.12-30.55,33.59-45.82,50.18-15.27,16.74-30.54,16.74-45.82,10.46-15.27-6.28-30.54-18.82-45.82-16.74-15.27,2.24-30.55,18.7-45.82,12.54-15.27-6.39-30.55-35.4-45.82-50.18-15.27-14.62-30.55-14.62-38.19-14.62h-7.63v114.92h687.06v-27.11h.22V19.32Z"/>
      <path class="cls-5" d="m43.09,56.95h7.64c7.64,0,22.91,0,38.19,14.62,15.27,14.78,30.55,43.79,45.82,50.18,15.27,6.16,30.54-10.31,45.82-12.54,15.27-2.08,30.54,10.46,45.82,16.74,15.27,6.28,30.55,6.28,45.82-10.46,15.27-16.58,30.55-50.29,45.82-50.18,15.27-.12,30.55,33.59,45.82,43.91,15.27,10.46,30.55-2.08,45.82-12.54,15.27-10.31,30.55-18.93,45.82-16.7,15.27,2.08,30.55,14.62,45.82,8.35,15.27-6.28,30.55-31.36,45.82-41.83,15.27-10.31,30.55-6.39,45.82,12.54,15.27,18.7,30.54,52.41,45.82,56.45,15.27,4.2,30.55-20.89,45.82-41.79,15.27-21.05,30.55-37.51,38.19-46.02l7.64-8.35"/>
    </g>
  </g>
</svg>