<svg width="296" height="284" viewBox="0 0 296 284" fill="none" xmlns="http://www.w3.org/2000/svg">
<path d="M24.28 272.008V270.6L28.12 269.64V281H26.76V271.272L24.28 272.008ZM37.832 273.432L37 281H35.64L37 269.24L41.48 277.352L45.96 269.24L47.32 281H45.96L45.128 273.432L41.48 279.96L37.832 273.432ZM48.5131 277.32C48.5131 276.573 48.6785 275.912 49.0091 275.336C49.3505 274.76 49.8091 274.307 50.3851 273.976C50.9611 273.645 51.6065 273.48 52.3211 273.48C53.0465 273.48 53.6918 273.645 54.2571 273.976C54.8331 274.307 55.2865 274.76 55.6171 275.336C55.9585 275.912 56.1291 276.573 56.1291 277.32C56.1291 278.056 55.9585 278.717 55.6171 279.304C55.2865 279.88 54.8331 280.333 54.2571 280.664C53.6918 280.995 53.0465 281.16 52.3211 281.16C51.6065 281.16 50.9611 280.995 50.3851 280.664C49.8091 280.333 49.3505 279.88 49.0091 279.304C48.6785 278.717 48.5131 278.056 48.5131 277.32ZM49.8091 277.32C49.8091 277.832 49.9158 278.285 50.1291 278.68C50.3531 279.075 50.6518 279.389 51.0251 279.624C51.4091 279.848 51.8411 279.96 52.3211 279.96C52.8011 279.96 53.2278 279.848 53.6011 279.624C53.9851 279.389 54.2838 279.075 54.4971 278.68C54.7211 278.285 54.8331 277.832 54.8331 277.32C54.8331 276.808 54.7211 276.355 54.4971 275.96C54.2838 275.555 53.9851 275.24 53.6011 275.016C53.2278 274.792 52.8011 274.68 52.3211 274.68C51.8411 274.68 51.4091 274.792 51.0251 275.016C50.6518 275.24 50.3531 275.555 50.1291 275.96C49.9158 276.355 49.8091 276.808 49.8091 277.32ZM62.6075 276.52C62.6075 275.912 62.4742 275.453 62.2075 275.144C61.9408 274.835 61.5515 274.68 61.0395 274.68C60.6662 274.68 60.3355 274.76 60.0475 274.92C59.7702 275.069 59.5515 275.283 59.3915 275.56C59.2422 275.837 59.1675 276.157 59.1675 276.52V281H57.8875V273.64H59.1675V274.792C59.4128 274.344 59.7168 274.013 60.0795 273.8C60.4528 273.587 60.8795 273.48 61.3595 273.48C62.1382 273.48 62.7515 273.741 63.1995 274.264C63.6582 274.776 63.8875 275.475 63.8875 276.36V281H62.6075V276.52ZM65.1738 273.64H68.8538V274.84H65.1738V273.64ZM66.3738 271.08H67.6538V281H66.3738V271.08ZM71.4175 268.52V281H70.1375V268.52H71.4175ZM74.8575 276.52C74.8575 275.912 74.7242 275.453 74.4575 275.144C74.2015 274.835 73.8122 274.68 73.2895 274.68C72.9162 274.68 72.5855 274.76 72.2975 274.92C72.0202 275.08 71.8015 275.299 71.6415 275.576C71.4922 275.853 71.4175 276.168 71.4175 276.52H71.0015C71.0015 275.933 71.1135 275.416 71.3375 274.968C71.5615 274.509 71.8655 274.147 72.2495 273.88C72.6442 273.613 73.0975 273.48 73.6095 273.48C74.1215 273.48 74.5642 273.587 74.9375 273.8C75.3215 274.013 75.6148 274.333 75.8175 274.76C76.0308 275.187 76.1375 275.72 76.1375 276.36V281H74.8575V276.52Z" fill="#AAAFBE"/>
<rect y="269" width="13" height="13" rx="2" fill="#4F6EDF"/>
<path d="M128.048 275.48V274.6C128.411 274.6 128.731 274.552 129.008 274.456C129.285 274.349 129.52 274.211 129.712 274.04C129.904 273.859 130.048 273.651 130.144 273.416C130.251 273.181 130.304 272.931 130.304 272.664C130.304 272.312 130.24 272.003 130.112 271.736C129.984 271.459 129.792 271.245 129.536 271.096C129.291 270.947 128.981 270.872 128.608 270.872C128.085 270.872 127.643 271.037 127.28 271.368C126.917 271.688 126.736 272.093 126.736 272.584H125.44C125.44 271.997 125.573 271.485 125.84 271.048C126.117 270.611 126.491 270.269 126.96 270.024C127.44 269.768 127.984 269.64 128.592 269.64C129.232 269.64 129.781 269.779 130.24 270.056C130.709 270.333 131.067 270.696 131.312 271.144C131.568 271.592 131.696 272.083 131.696 272.616C131.696 273.139 131.541 273.619 131.232 274.056C130.923 274.493 130.496 274.84 129.952 275.096C129.408 275.352 128.773 275.48 128.048 275.48ZM128.528 281.16C127.984 281.16 127.493 281.08 127.056 280.92C126.619 280.76 126.245 280.541 125.936 280.264C125.627 279.976 125.387 279.645 125.216 279.272C125.045 278.888 124.96 278.477 124.96 278.04H126.336C126.336 278.392 126.427 278.707 126.608 278.984C126.8 279.261 127.061 279.48 127.392 279.64C127.723 279.8 128.101 279.88 128.528 279.88C128.955 279.88 129.323 279.8 129.632 279.64C129.952 279.469 130.197 279.235 130.368 278.936C130.539 278.637 130.624 278.285 130.624 277.88C130.624 277.539 130.555 277.24 130.416 276.984C130.288 276.717 130.107 276.499 129.872 276.328C129.637 276.147 129.365 276.013 129.056 275.928C128.747 275.843 128.411 275.8 128.048 275.8V274.92C128.592 274.92 129.099 274.979 129.568 275.096C130.048 275.213 130.469 275.4 130.832 275.656C131.205 275.901 131.493 276.221 131.696 276.616C131.909 277.011 132.016 277.485 132.016 278.04C132.016 278.669 131.861 279.219 131.552 279.688C131.253 280.157 130.843 280.52 130.32 280.776C129.797 281.032 129.2 281.16 128.528 281.16ZM140.363 273.432L139.531 281H138.171L139.531 269.24L144.011 277.352L148.491 269.24L149.851 281H148.491L147.659 273.432L144.011 279.96L140.363 273.432ZM151.044 277.32C151.044 276.573 151.21 275.912 151.54 275.336C151.882 274.76 152.34 274.307 152.916 273.976C153.492 273.645 154.138 273.48 154.852 273.48C155.578 273.48 156.223 273.645 156.788 273.976C157.364 274.307 157.818 274.76 158.148 275.336C158.49 275.912 158.66 276.573 158.66 277.32C158.66 278.056 158.49 278.717 158.148 279.304C157.818 279.88 157.364 280.333 156.788 280.664C156.223 280.995 155.578 281.16 154.852 281.16C154.138 281.16 153.492 280.995 152.916 280.664C152.34 280.333 151.882 279.88 151.54 279.304C151.21 278.717 151.044 278.056 151.044 277.32ZM152.34 277.32C152.34 277.832 152.447 278.285 152.66 278.68C152.884 279.075 153.183 279.389 153.556 279.624C153.94 279.848 154.372 279.96 154.852 279.96C155.332 279.96 155.759 279.848 156.132 279.624C156.516 279.389 156.815 279.075 157.028 278.68C157.252 278.285 157.364 277.832 157.364 277.32C157.364 276.808 157.252 276.355 157.028 275.96C156.815 275.555 156.516 275.24 156.132 275.016C155.759 274.792 155.332 274.68 154.852 274.68C154.372 274.68 153.94 274.792 153.556 275.016C153.183 275.24 152.884 275.555 152.66 275.96C152.447 276.355 152.34 276.808 152.34 277.32ZM165.139 276.52C165.139 275.912 165.005 275.453 164.739 275.144C164.472 274.835 164.083 274.68 163.571 274.68C163.197 274.68 162.867 274.76 162.579 274.92C162.301 275.069 162.083 275.283 161.923 275.56C161.773 275.837 161.699 276.157 161.699 276.52V281H160.419V273.64H161.699V274.792C161.944 274.344 162.248 274.013 162.611 273.8C162.984 273.587 163.411 273.48 163.891 273.48C164.669 273.48 165.283 273.741 165.731 274.264C166.189 274.776 166.419 275.475 166.419 276.36V281H165.139V276.52ZM167.705 273.64H171.385V274.84H167.705V273.64ZM168.905 271.08H170.185V281H168.905V271.08ZM173.949 268.52V281H172.669V268.52H173.949ZM177.389 276.52C177.389 275.912 177.255 275.453 176.989 275.144C176.733 274.835 176.343 274.68 175.821 274.68C175.447 274.68 175.117 274.76 174.829 274.92C174.551 275.08 174.333 275.299 174.173 275.576C174.023 275.853 173.949 276.168 173.949 276.52H173.533C173.533 275.933 173.645 275.416 173.869 274.968C174.093 274.509 174.397 274.147 174.781 273.88C175.175 273.613 175.629 273.48 176.141 273.48C176.653 273.48 177.095 273.587 177.469 273.8C177.853 274.013 178.146 274.333 178.349 274.76C178.562 275.187 178.669 275.72 178.669 276.36V281H177.389V276.52ZM181.379 278.744C181.528 278.968 181.699 279.176 181.891 279.368C182.083 279.56 182.302 279.715 182.547 279.832C182.803 279.939 183.08 279.992 183.379 279.992C183.742 279.992 184.024 279.912 184.227 279.752C184.44 279.581 184.547 279.352 184.547 279.064C184.547 278.808 184.462 278.595 184.291 278.424C184.131 278.243 183.923 278.093 183.667 277.976C183.411 277.848 183.139 277.731 182.851 277.624C182.531 277.496 182.206 277.347 181.875 277.176C181.555 276.995 181.283 276.765 181.059 276.488C180.846 276.2 180.739 275.843 180.739 275.416C180.739 274.979 180.851 274.616 181.075 274.328C181.31 274.04 181.608 273.827 181.971 273.688C182.344 273.549 182.728 273.48 183.123 273.48C183.518 273.48 183.886 273.544 184.227 273.672C184.579 273.8 184.888 273.971 185.155 274.184C185.422 274.397 185.63 274.643 185.779 274.92L184.755 275.576C184.552 275.299 184.296 275.069 183.987 274.888C183.688 274.707 183.347 274.616 182.963 274.616C182.696 274.616 182.467 274.675 182.275 274.792C182.083 274.909 181.987 275.091 181.987 275.336C181.987 275.528 182.062 275.699 182.211 275.848C182.36 275.997 182.552 276.131 182.787 276.248C183.022 276.365 183.267 276.477 183.523 276.584C183.95 276.755 184.339 276.941 184.691 277.144C185.043 277.336 185.32 277.571 185.523 277.848C185.736 278.125 185.843 278.483 185.843 278.92C185.843 279.56 185.608 280.093 185.139 280.52C184.68 280.947 184.072 281.16 183.315 281.16C182.824 281.16 182.382 281.075 181.987 280.904C181.592 280.723 181.256 280.493 180.979 280.216C180.712 279.939 180.51 279.656 180.371 279.368L181.379 278.744Z" fill="#AAAFBE"/>
<rect x="101" y="268" width="13" height="13" rx="2" fill="#8083DC"/>
<path d="M235.096 277.32C235.096 277.832 235.203 278.285 235.416 278.68C235.64 279.064 235.939 279.368 236.312 279.592C236.696 279.816 237.128 279.928 237.608 279.928C238.088 279.928 238.515 279.816 238.888 279.592C239.272 279.368 239.571 279.064 239.784 278.68C240.008 278.285 240.12 277.832 240.12 277.32C240.12 276.808 240.008 276.355 239.784 275.96C239.571 275.555 239.272 275.24 238.888 275.016C238.515 274.792 238.088 274.68 237.608 274.68C237.128 274.68 236.696 274.792 236.312 275.016C235.939 275.24 235.64 275.555 235.416 275.96C235.203 276.355 235.096 276.808 235.096 277.32ZM238.28 269.8H239.992L236.488 274.424L236.392 274.344C236.605 274.077 236.851 273.901 237.128 273.816C237.416 273.731 237.741 273.688 238.104 273.688C238.563 273.688 238.989 273.779 239.384 273.96C239.789 274.141 240.141 274.397 240.44 274.728C240.749 275.059 240.989 275.448 241.16 275.896C241.331 276.333 241.416 276.808 241.416 277.32C241.416 278.088 241.245 278.76 240.904 279.336C240.573 279.912 240.12 280.36 239.544 280.68C238.979 281 238.333 281.16 237.608 281.16C236.893 281.16 236.248 281 235.672 280.68C235.096 280.36 234.637 279.912 234.296 279.336C233.965 278.76 233.8 278.088 233.8 277.32C233.8 276.861 233.864 276.435 233.992 276.04C234.12 275.645 234.291 275.299 234.504 275L238.28 269.8ZM249.848 273.432L249.016 281H247.656L249.016 269.24L253.496 277.352L257.976 269.24L259.336 281H257.976L257.144 273.432L253.496 279.96L249.848 273.432ZM260.529 277.32C260.529 276.573 260.694 275.912 261.025 275.336C261.366 274.76 261.825 274.307 262.401 273.976C262.977 273.645 263.622 273.48 264.337 273.48C265.062 273.48 265.707 273.645 266.273 273.976C266.849 274.307 267.302 274.76 267.633 275.336C267.974 275.912 268.145 276.573 268.145 277.32C268.145 278.056 267.974 278.717 267.633 279.304C267.302 279.88 266.849 280.333 266.273 280.664C265.707 280.995 265.062 281.16 264.337 281.16C263.622 281.16 262.977 280.995 262.401 280.664C261.825 280.333 261.366 279.88 261.025 279.304C260.694 278.717 260.529 278.056 260.529 277.32ZM261.825 277.32C261.825 277.832 261.931 278.285 262.145 278.68C262.369 279.075 262.667 279.389 263.041 279.624C263.425 279.848 263.857 279.96 264.337 279.96C264.817 279.96 265.243 279.848 265.617 279.624C266.001 279.389 266.299 279.075 266.513 278.68C266.737 278.285 266.849 277.832 266.849 277.32C266.849 276.808 266.737 276.355 266.513 275.96C266.299 275.555 266.001 275.24 265.617 275.016C265.243 274.792 264.817 274.68 264.337 274.68C263.857 274.68 263.425 274.792 263.041 275.016C262.667 275.24 262.369 275.555 262.145 275.96C261.931 276.355 261.825 276.808 261.825 277.32ZM274.623 276.52C274.623 275.912 274.49 275.453 274.223 275.144C273.956 274.835 273.567 274.68 273.055 274.68C272.682 274.68 272.351 274.76 272.063 274.92C271.786 275.069 271.567 275.283 271.407 275.56C271.258 275.837 271.183 276.157 271.183 276.52V281H269.903V273.64H271.183V274.792C271.428 274.344 271.732 274.013 272.095 273.8C272.468 273.587 272.895 273.48 273.375 273.48C274.154 273.48 274.767 273.741 275.215 274.264C275.674 274.776 275.903 275.475 275.903 276.36V281H274.623V276.52ZM277.189 273.64H280.869V274.84H277.189V273.64ZM278.389 271.08H279.669V281H278.389V271.08ZM283.433 268.52V281H282.153V268.52H283.433ZM286.873 276.52C286.873 275.912 286.74 275.453 286.473 275.144C286.217 274.835 285.828 274.68 285.305 274.68C284.932 274.68 284.601 274.76 284.313 274.92C284.036 275.08 283.817 275.299 283.657 275.576C283.508 275.853 283.433 276.168 283.433 276.52H283.017C283.017 275.933 283.129 275.416 283.353 274.968C283.577 274.509 283.881 274.147 284.265 273.88C284.66 273.613 285.113 273.48 285.625 273.48C286.137 273.48 286.58 273.587 286.953 273.8C287.337 274.013 287.63 274.333 287.833 274.76C288.046 275.187 288.153 275.72 288.153 276.36V281H286.873V276.52ZM290.863 278.744C291.013 278.968 291.183 279.176 291.375 279.368C291.567 279.56 291.786 279.715 292.031 279.832C292.287 279.939 292.565 279.992 292.863 279.992C293.226 279.992 293.509 279.912 293.711 279.752C293.925 279.581 294.031 279.352 294.031 279.064C294.031 278.808 293.946 278.595 293.775 278.424C293.615 278.243 293.407 278.093 293.151 277.976C292.895 277.848 292.623 277.731 292.335 277.624C292.015 277.496 291.69 277.347 291.359 277.176C291.039 276.995 290.767 276.765 290.543 276.488C290.33 276.2 290.223 275.843 290.223 275.416C290.223 274.979 290.335 274.616 290.559 274.328C290.794 274.04 291.093 273.827 291.455 273.688C291.829 273.549 292.213 273.48 292.607 273.48C293.002 273.48 293.37 273.544 293.711 273.672C294.063 273.8 294.373 273.971 294.639 274.184C294.906 274.397 295.114 274.643 295.263 274.92L294.239 275.576C294.037 275.299 293.781 275.069 293.471 274.888C293.173 274.707 292.831 274.616 292.447 274.616C292.181 274.616 291.951 274.675 291.759 274.792C291.567 274.909 291.471 275.091 291.471 275.336C291.471 275.528 291.546 275.699 291.695 275.848C291.845 275.997 292.037 276.131 292.271 276.248C292.506 276.365 292.751 276.477 293.007 276.584C293.434 276.755 293.823 276.941 294.175 277.144C294.527 277.336 294.805 277.571 295.007 277.848C295.221 278.125 295.327 278.483 295.327 278.92C295.327 279.56 295.093 280.093 294.623 280.52C294.165 280.947 293.557 281.16 292.799 281.16C292.309 281.16 291.866 281.075 291.471 280.904C291.077 280.723 290.741 280.493 290.463 280.216C290.197 279.939 289.994 279.656 289.855 279.368L290.863 278.744Z" fill="#AAAFBE"/>
<rect x="210" y="268" width="13" height="13" rx="2" fill="#25B79F"/>
<g clip-path="url(#clip0_233_710)">
<path d="M184.77 164.77L211.98 191.979C232.321 171.638 241.304 145.551 237.795 116.97L199.603 121.669C201.469 136.996 196.53 153.01 184.755 164.785L184.77 164.77Z" fill="#8083DC"/>
<path d="M184.766 91.1918C193.303 99.7292 198.244 110.52 199.603 121.639L237.795 116.94C236.959 110.134 235.346 103.448 233.003 97.0152C215.911 50.0463 163.972 25.8355 117.005 42.9215L130.171 79.0698C148.588 72.3846 169.99 76.4155 184.751 91.1768L184.766 91.1918Z" fill="#25B79F"/>
<path d="M211.965 191.994L184.755 164.785C164.444 185.096 131.505 185.08 111.192 164.766C90.8781 144.452 90.8613 111.514 111.187 91.1875C116.739 85.6358 123.246 81.6065 130.171 79.0996L117.005 42.9513C103.618 47.8309 94.0369 53.9196 83.9633 63.9931C48.6238 99.3327 48.6272 156.643 83.9708 191.987C119.314 227.331 176.64 227.319 211.965 191.994Z" fill="#4F6EDF"/>
<path d="M119.504 122.498V120.386L125.264 118.946V135.986H123.224V121.394L119.504 122.498ZM131.941 133.346L133.861 134.066L131.221 140.066L129.829 139.562L131.941 133.346ZM148.347 130.466C148.347 131.426 148.195 132.266 147.891 132.986C147.587 133.706 147.163 134.306 146.619 134.786C146.075 135.266 145.451 135.626 144.747 135.866C144.043 136.106 143.283 136.226 142.467 136.226C141.443 136.226 140.547 136.066 139.779 135.746C139.027 135.426 138.379 135.002 137.835 134.474C137.307 133.93 136.859 133.338 136.491 132.698L138.219 131.522C138.475 132.002 138.811 132.458 139.227 132.89C139.659 133.306 140.155 133.65 140.715 133.922C141.275 134.178 141.859 134.306 142.467 134.306C143.267 134.306 143.947 134.146 144.507 133.826C145.067 133.506 145.491 133.058 145.779 132.482C146.083 131.906 146.235 131.234 146.235 130.466C146.235 129.698 146.067 129.026 145.731 128.45C145.411 127.874 144.963 127.426 144.387 127.106C143.827 126.786 143.187 126.626 142.467 126.626C141.939 126.626 141.451 126.674 141.003 126.77C140.571 126.85 140.131 127.002 139.683 127.226C139.251 127.434 138.747 127.738 138.171 128.138L140.379 119.186H148.299V120.986H141.963L140.835 125.426C141.235 125.218 141.643 125.066 142.059 124.97C142.491 124.858 142.915 124.802 143.331 124.802C144.291 124.802 145.147 125.042 145.899 125.522C146.667 126.002 147.267 126.666 147.699 127.514C148.131 128.362 148.347 129.346 148.347 130.466ZM149.798 135.986L157.742 127.514C158.11 127.114 158.422 126.722 158.678 126.338C158.95 125.938 159.15 125.538 159.278 125.138C159.422 124.722 159.494 124.29 159.494 123.842C159.494 123.474 159.422 123.114 159.278 122.762C159.134 122.41 158.918 122.09 158.63 121.802C158.358 121.514 158.022 121.282 157.622 121.106C157.222 120.93 156.766 120.842 156.254 120.842C155.534 120.842 154.91 121.01 154.382 121.346C153.87 121.666 153.478 122.138 153.206 122.762C152.934 123.37 152.798 124.098 152.798 124.946H150.758C150.758 123.746 150.974 122.698 151.406 121.802C151.838 120.89 152.462 120.186 153.278 119.69C154.11 119.178 155.102 118.922 156.254 118.922C157.182 118.922 157.982 119.082 158.654 119.402C159.326 119.706 159.878 120.106 160.31 120.602C160.742 121.082 161.062 121.602 161.27 122.162C161.478 122.722 161.582 123.258 161.582 123.77C161.582 124.634 161.374 125.49 160.958 126.338C160.542 127.186 160.006 127.946 159.35 128.618L153.998 134.066H161.654V135.986H149.798ZM163.462 132.626L172.774 119.186H173.614V135.986H171.574V131.762V131.498V123.722L166.822 130.826H172.414H172.822H176.254V132.626H163.462Z" fill="white"/>
</g>
<defs>
<clipPath id="clip0_233_710">
<rect width="181" height="181" fill="white" transform="translate(275.973 127.986) rotate(135)"/>
</clipPath>
</defs>
</svg>
