<svg width="17" height="20" viewBox="0 0 17 20" fill="none" xmlns="http://www.w3.org/2000/svg">
<g clip-path="url(#clip0_218_1268)">
<path d="M8.42003 9.66C11.0876 9.66 13.25 7.49754 13.25 4.83C13.25 2.16246 11.0876 0 8.42003 0C5.75249 0 3.59003 2.16246 3.59003 4.83C3.59003 7.49754 5.75249 9.66 8.42003 9.66Z" fill="#AAAFBE"/>
<path d="M0.619974 15.16C1.41997 12.4 4.14997 10.87 7.01997 10.87H9.81997C12.69 10.87 15.42 12.4 16.22 15.16C16.51 16.14 16.74 17.23 16.83 18.33C16.88 18.88 16.42 19.33 15.87 19.33H0.959974C0.409974 19.33 -0.0400263 18.88 -2.62742e-05 18.33C0.0899737 17.22 0.329974 16.14 0.609974 15.16H0.619974Z" fill="#AAAFBE"/>
</g>
<defs>
<clipPath id="clip0_218_1268">
<rect width="16.84" height="19.33" fill="white"/>
</clipPath>
</defs>
</svg>
