<svg width="17" height="17" viewBox="0 0 17 17" fill="none" xmlns="http://www.w3.org/2000/svg">
<g clip-path="url(#clip0_218_1242)">
<path fill-rule="evenodd" clip-rule="evenodd" d="M2.55 0C1.139 0 0 1.139 0 2.55V14.45C0 15.861 1.139 17 2.55 17H9.35V12.699C9.35 12.1465 9.35 11.645 9.401 11.237C9.4605 10.795 9.5965 10.3445 9.9705 9.9705C10.3445 9.5965 10.795 9.4605 11.237 9.401C11.645 9.35 12.138 9.35 12.699 9.35H17V2.55C17 1.139 15.861 0 14.45 0H2.55ZM16.7705 11.05H12.75C12.121 11.05 11.7385 11.05 11.4665 11.0925C11.22 11.1265 11.186 11.169 11.1775 11.1775C11.1775 11.1775 11.1265 11.22 11.0925 11.4665C11.0585 11.747 11.05 12.1295 11.05 12.75V16.7705C11.322 16.643 11.577 16.473 11.798 16.252L16.252 11.798C16.473 11.577 16.643 11.3305 16.7705 11.05Z" fill="#AAAFBE"/>
</g>
<defs>
<clipPath id="clip0_218_1242">
<rect width="17" height="17" fill="white"/>
</clipPath>
</defs>
</svg>
