<svg width="20" height="14" viewBox="0 0 20 14" fill="none" xmlns="http://www.w3.org/2000/svg">
<path fill-rule="evenodd" clip-rule="evenodd" d="M20 7C20 6.67333 19.8277 6.44933 19.4739 6.00133C17.9683 4.06933 14.2948 0 9.99547 0C5.69615 0 2.03175 4.06933 0.526077 6.00133C0.181406 6.44933 0 6.67333 0 7C0 7.32667 0.172336 7.55067 0.526077 7.99867C2.03175 9.93067 5.70522 14 10.0045 14C14.3039 14 17.9773 9.93067 19.483 7.99867C19.8277 7.55067 20.0091 7.32667 20.0091 7H20ZM9.99547 10.5C11.873 10.5 13.3968 8.932 13.3968 7C13.3968 5.068 11.873 3.5 9.99547 3.5C8.11792 3.5 6.5941 5.068 6.5941 7C6.5941 8.932 8.11792 10.5 9.99547 10.5Z" fill="#4F6EDF"/>
</svg>
