<svg width="18" height="16" viewBox="0 0 18 16" fill="none" xmlns="http://www.w3.org/2000/svg">
<g clip-path="url(#clip0_195_794)">
<path d="M2.33168 8.953L8.47005 14.7704C8.68202 14.9664 8.78801 15.0733 8.91166 15.1C8.96465 15.1089 9.02648 15.1089 9.07947 15.1C9.20312 15.0733 9.30911 14.9753 9.52108 14.7704L15.6595 8.953C17.3906 7.3138 17.5937 4.62338 16.1452 2.73474L15.8714 2.37839C14.1315 0.115582 10.6428 0.498656 9.42393 3.08217C9.24728 3.44743 8.73501 3.44743 8.5672 3.08217C7.34836 0.498656 3.85965 0.115582 2.11971 2.37839L1.84591 2.73474C0.388597 4.62338 0.600569 7.3138 2.33168 8.953Z" fill="#8C8EC5" stroke="#8C8EC5" stroke-width="2"/>
</g>
<defs>
<clipPath id="clip0_195_794">
<rect width="18" height="16" fill="white"/>
</clipPath>
</defs>
</svg>

