<?xml version="1.0" encoding="UTF-8" standalone="no"?>
<!DOCTYPE svg PUBLIC "-//W3C//DTD SVG 1.1//EN" "http://www.w3.org/Graphics/SVG/1.1/DTD/svg11.dtd">
<svg width="209px" height="187px" version="1.1" xmlns="http://www.w3.org/2000/svg" xmlns:xlink="http://www.w3.org/1999/xlink" xml:space="preserve" xmlns:serif="http://www.serif.com/" style="fill-rule:evenodd;clip-rule:evenodd;stroke-linejoin:round;stroke-miterlimit:2;">
    <g transform="matrix(1,0,0,1,-844.824,-1886.89)">
        <g transform="matrix(1,0,0,1,-226.624,261.22)">
            <path d="M1175.62,1625.68C1178.18,1625.59 1180.77,1626.44 1182.81,1628.25L1278.62,1712.78C1279.71,1713.74 1280.09,1715.28 1279.57,1716.63C1279.06,1718 1277.76,1718.89 1276.3,1718.89L1249.5,1718.89L1249.5,1802.2C1249.5,1807.9 1244.88,1812.52 1239.18,1812.52L1202.5,1812.52L1202.5,1770.12C1202.5,1766.74 1201.16,1763.5 1198.77,1761.11C1196.38,1758.72 1193.13,1757.38 1189.75,1757.38L1161.49,1757.38C1158.11,1757.38 1154.87,1758.72 1152.48,1761.11C1150.09,1763.5 1148.75,1766.74 1148.75,1770.12L1148.75,1812.52L1112.07,1812.52C1106.37,1812.52 1101.75,1807.9 1101.75,1802.2L1101.75,1718.89L1074.94,1718.89C1073.49,1718.89 1072.19,1718 1071.67,1716.63C1071.16,1715.28 1071.54,1713.74 1072.63,1712.78L1168.43,1628.25C1170.48,1626.44 1173.07,1625.59 1175.62,1625.68Z" style="fill:white;"/>
        </g>
    </g>
</svg>