<svg width="16" height="18" viewBox="0 0 16 18" fill="none" xmlns="http://www.w3.org/2000/svg">
<g clip-path="url(#clip0_218_1247)">
<path fill-rule="evenodd" clip-rule="evenodd" d="M0.308571 5.79812C0 6.47101 0 7.23363 0 8.74765V13.5028C0 15.6224 0 16.6766 0.674286 17.3271C1.28 17.9215 2.22857 17.9776 4 17.9888V12.3813C4 11.1476 5.02857 10.1383 6.28571 10.1383H9.71429C10.9714 10.1383 12 11.1476 12 12.3813V17.9888C13.7829 17.9888 14.72 17.9327 15.3257 17.3271C16 16.6654 16 15.6112 16 13.5028V8.74765C16 7.22241 16 6.4598 15.6914 5.79812C15.3829 5.12522 14.7886 4.63176 13.6114 3.64484L12.4686 2.68036C10.3429 0.885966 9.28 -0.0112305 8.01143 -0.0112305C6.74286 -0.0112305 5.68 0.885966 3.55429 2.68036L2.41143 3.64484C1.23429 4.63176 0.64 5.13643 0.331429 5.79812H0.308571ZM9.71429 18V12.3925H6.28571V18H9.71429Z" fill="white"/>
</g>
<defs>
<clipPath id="clip0_218_1247">
<rect width="16" height="18" fill="white"/>
</clipPath>
</defs>
</svg>
