<svg width="18" height="14" viewBox="0 0 18 14" fill="none" xmlns="http://www.w3.org/2000/svg">
<g clip-path="url(#clip0_218_1239)">
<path fill-rule="evenodd" clip-rule="evenodd" d="M0.88 0.88C0 1.76 0 3.17 0 6V8C0 10.83 0 12.24 0.88 13.12C1.76 14 3.17 14 6 14H12C14.83 14 16.24 14 17.12 13.12C18 12.24 18 10.83 18 8V6C18 3.17 18 1.76 17.12 0.88C16.24 0 14.83 0 12 0H6C3.17 0 1.76 0 0.88 0.88ZM3.55 3.17C3.09 2.86 2.47 2.99 2.16 3.45C1.85 3.91 1.98 4.53 2.44 4.84L7.89 8.47C8.56 8.92 9.44 8.92 10.11 8.47L15.56 4.84C16.02 4.53 16.14 3.91 15.84 3.45C15.53 2.99 14.91 2.87 14.45 3.17L9 6.8L3.55 3.17Z" fill="#AAAFBE"/>
</g>
<defs>
<clipPath id="clip0_218_1239">
<rect width="18" height="14" fill="white"/>
</clipPath>
</defs>
</svg>
