<svg width="15" height="20" viewBox="0 0 15 20" fill="none" xmlns="http://www.w3.org/2000/svg">
<g clip-path="url(#clip0_221_284)">
<path d="M15 20.0001H13.3333V15.7976C13.3327 15.1442 13.0728 14.5179 12.6109 14.0559C12.1489 13.5939 11.5225 13.3341 10.8692 13.3334H4.13083C3.4775 13.3341 2.85111 13.5939 2.38914 14.0559C1.92716 14.5179 1.66733 15.1442 1.66667 15.7976V20.0001H0V15.7976C0.00132319 14.7024 0.436959 13.6525 1.21135 12.8781C1.98575 12.1037 3.03567 11.6681 4.13083 11.6667H10.8692C11.9643 11.6681 13.0143 12.1037 13.7886 12.8781C14.563 13.6525 14.9987 14.7024 15 15.7976V20.0001Z" fill="#9CA0AE"/>
<path d="M7.5 10C6.5111 10 5.5444 9.70676 4.72215 9.15735C3.89991 8.60794 3.25904 7.82705 2.8806 6.91342C2.50217 5.99979 2.40315 4.99446 2.59608 4.02455C2.789 3.05465 3.26521 2.16373 3.96447 1.46447C4.66373 0.765206 5.55465 0.289002 6.52455 0.0960758C7.49446 -0.0968503 8.49979 0.00216645 9.41342 0.380605C10.327 0.759043 11.1079 1.39991 11.6573 2.22215C12.2068 3.0444 12.5 4.0111 12.5 5C12.4987 6.32568 11.9715 7.59668 11.0341 8.53407C10.0967 9.47147 8.82568 9.99868 7.5 10ZM7.5 1.66667C6.84073 1.66667 6.19627 1.86217 5.6481 2.22844C5.09994 2.59471 4.6727 3.1153 4.4204 3.72439C4.16811 4.33348 4.1021 5.0037 4.23072 5.6503C4.35934 6.29691 4.6768 6.89085 5.14298 7.35703C5.60915 7.8232 6.2031 8.14067 6.8497 8.26929C7.4963 8.3979 8.16653 8.33189 8.77561 8.0796C9.3847 7.82731 9.9053 7.40007 10.2716 6.8519C10.6378 6.30374 10.8333 5.65927 10.8333 5C10.8333 4.11595 10.4821 3.2681 9.85703 2.64298C9.2319 2.01786 8.38406 1.66667 7.5 1.66667Z" fill="#9CA0AE"/>
</g>
<defs>
<clipPath id="clip0_221_284">
<rect width="15" height="20" fill="white"/>
</clipPath>
</defs>
</svg>
