<svg width="20" height="21" viewBox="0 0 20 21" fill="none" xmlns="http://www.w3.org/2000/svg">
<g clip-path="url(#clip0_221_289)">
<path d="M20.0009 9.3925C19.8804 7.44252 19.1919 5.57043 18.0203 4.00702C16.8486 2.44362 15.2451 1.25724 13.4074 0.594163C11.5696 -0.068918 9.57802 -0.179721 7.67808 0.275414C5.77813 0.730549 4.05289 1.73173 2.71507 3.15552C1.37724 4.57931 0.485308 6.36347 0.149226 8.28805C-0.186857 10.2126 0.0476042 12.1935 0.823704 13.9864C1.5998 15.7794 2.88361 17.306 4.51686 18.3781C6.15011 19.4503 8.06141 20.021 10.0151 20.02H15.8343C16.939 20.0189 17.9982 19.5796 18.7793 18.7984C19.5605 18.0172 19.9998 16.9581 20.0009 15.8533V9.3925ZM18.3343 15.8533C18.3343 16.5164 18.0709 17.1523 17.602 17.6211C17.1332 18.0899 16.4973 18.3533 15.8343 18.3533H10.0151C8.83922 18.3528 7.67664 18.1044 6.60319 17.6244C5.52973 17.1444 4.5695 16.4435 3.78511 15.5675C2.99692 14.6919 2.40505 13.6579 2.04919 12.5348C1.69332 11.4118 1.58169 10.2256 1.72177 9.05583C1.94297 7.21078 2.77193 5.49182 4.07798 4.16994C5.38402 2.84805 7.09286 1.99843 8.93511 1.755C9.29447 1.70996 9.65627 1.68714 10.0184 1.68667C11.9605 1.68137 13.8424 2.35992 15.3343 3.60333C16.2055 4.32745 16.9207 5.22096 17.4364 6.22969C17.9521 7.23842 18.2575 8.34137 18.3343 9.47167V15.8533Z" fill="#9CA0AE"/>
<path d="M6.66732 7.51993H10.0007C10.2217 7.51993 10.4336 7.43214 10.5899 7.27586C10.7462 7.11958 10.834 6.90762 10.834 6.6866C10.834 6.46559 10.7462 6.25363 10.5899 6.09735C10.4336 5.94107 10.2217 5.85327 10.0007 5.85327H6.66732C6.4463 5.85327 6.23434 5.94107 6.07806 6.09735C5.92178 6.25363 5.83398 6.46559 5.83398 6.6866C5.83398 6.90762 5.92178 7.11958 6.07806 7.27586C6.23434 7.43214 6.4463 7.51993 6.66732 7.51993Z" fill="#9CA0AE"/>
<path d="M13.334 9.18665H6.66732C6.4463 9.18665 6.23434 9.27444 6.07806 9.43072C5.92178 9.58701 5.83398 9.79897 5.83398 10.02C5.83398 10.241 5.92178 10.453 6.07806 10.6092C6.23434 10.7655 6.4463 10.8533 6.66732 10.8533H13.334C13.555 10.8533 13.767 10.7655 13.9232 10.6092C14.0795 10.453 14.1673 10.241 14.1673 10.02C14.1673 9.79897 14.0795 9.58701 13.9232 9.43072C13.767 9.27444 13.555 9.18665 13.334 9.18665Z" fill="#9CA0AE"/>
<path d="M13.334 12.52H6.66732C6.4463 12.52 6.23434 12.6078 6.07806 12.7641C5.92178 12.9204 5.83398 13.1323 5.83398 13.3534C5.83398 13.5744 5.92178 13.7863 6.07806 13.9426C6.23434 14.0989 6.4463 14.1867 6.66732 14.1867H13.334C13.555 14.1867 13.767 14.0989 13.9232 13.9426C14.0795 13.7863 14.1673 13.5744 14.1673 13.3534C14.1673 13.1323 14.0795 12.9204 13.9232 12.7641C13.767 12.6078 13.555 12.52 13.334 12.52Z" fill="#9CA0AE"/>
</g>
<defs>
<clipPath id="clip0_221_289">
<rect width="20" height="21" fill="white"/>
</clipPath>
</defs>
</svg>
