<svg width="20" height="14" viewBox="0 0 20 14" fill="none" xmlns="http://www.w3.org/2000/svg">
<g clip-path="url(#clip0_218_1236)">
<path fill-rule="evenodd" clip-rule="evenodd" d="M0.59 0.59C0 1.18 0 2.12 0 4V10C0 11.89 0 12.83 0.59 13.41C1.18 14 2.12 14 4 14H16C17.89 14 18.83 14 19.41 13.41C19.99 12.82 20 11.88 20 10V4C20 2.11 20 1.17 19.41 0.59C18.82 0 17.88 0 16 0H4C2.11 0 1.17 0 0.59 0.59ZM3 2C2.45 2 2 2.45 2 3C2 3.55 2.45 4 3 4H5C5.55 4 6 3.55 6 3C6 2.45 5.55 2 5 2H3ZM14 11C14 10.45 14.45 10 15 10H17C17.55 10 18 10.45 18 11C18 11.55 17.55 12 17 12H15C14.45 12 14 11.55 14 11ZM11 7C11 7.55 10.55 8 10 8C9.45 8 9 7.55 9 7C9 6.45 9.45 6 10 6C10.55 6 11 6.45 11 7ZM13 7C13 8.66 11.66 10 10 10C8.34 10 7 8.66 7 7C7 5.34 8.34 4 10 4C11.66 4 13 5.34 13 7Z" fill="#AAAFBE"/>
</g>
<defs>
<clipPath id="clip0_218_1236">
<rect width="20" height="14" fill="white"/>
</clipPath>
</defs>
</svg>
