<svg width="16" height="20" viewBox="0 0 16 20" fill="none" xmlns="http://www.w3.org/2000/svg">
<path d="M5.375 10.625L4.66789 9.91789L5.375 9.21079L6.08211 9.91789L5.375 10.625ZM6.375 18.5C6.375 19.0523 5.92729 19.5 5.375 19.5C4.82272 19.5 4.375 19.0523 4.375 18.5L6.375 18.5ZM0.292893 14.2929L4.66789 9.91789L6.08211 11.3321L1.70711 15.7071L0.292893 14.2929ZM6.08211 9.91789L10.4571 14.2929L9.04289 15.7071L4.66789 11.3321L6.08211 9.91789ZM6.375 10.625L6.375 18.5L4.375 18.5L4.375 10.625L6.375 10.625Z" fill="#AAAFBE"/>
<path d="M10.625 8.875L9.91789 9.58211L10.625 10.2892L11.3321 9.58211L10.625 8.875ZM11.625 1C11.625 0.447715 11.1773 2.15378e-07 10.625 1.91237e-07C10.0727 1.67096e-07 9.625 0.447715 9.625 1L11.625 1ZM5.54289 5.20711L9.91789 9.58211L11.3321 8.16789L6.95711 3.79289L5.54289 5.20711ZM11.3321 9.58211L15.7071 5.20711L14.2929 3.79289L9.91789 8.16789L11.3321 9.58211ZM11.625 8.875L11.625 1L9.625 1L9.625 8.875L11.625 8.875Z" fill="#AAAFBE"/>
</svg>
