<svg width="18" height="18" viewBox="0 0 18 18" fill="none" xmlns="http://www.w3.org/2000/svg">
<g clip-path="url(#clip0_195_792)">
<path fill-rule="evenodd" clip-rule="evenodd" d="M2.7 0C1.206 0 0 1.206 0 2.7V15.3C0 16.794 1.206 18 2.7 18H9.9V13.446C9.9 12.861 9.9 12.33 9.954 11.898C10.017 11.43 10.161 10.953 10.557 10.557C10.953 10.161 11.43 10.017 11.898 9.954C12.33 9.9 12.852 9.9 13.446 9.9H18V2.7C18 1.206 16.794 0 15.3 0H2.7ZM17.757 11.7H13.5C12.834 11.7 12.429 11.7 12.141 11.745C11.88 11.781 11.844 11.826 11.835 11.835C11.835 11.835 11.781 11.88 11.745 12.141C11.709 12.438 11.7 12.843 11.7 13.5V17.757C11.988 17.622 12.258 17.442 12.492 17.208L17.208 12.492C17.442 12.258 17.622 11.997 17.757 11.7Z" fill="#25B79F"/>
</g>
<defs>
<clipPath id="clip0_195_792">
<rect width="18" height="18" fill="white"/>
</clipPath>
</defs>
</svg>

