<svg width="22" height="21" viewBox="0 0 22 21" fill="none" xmlns="http://www.w3.org/2000/svg">
<g clip-path="url(#clip0_218_1271)">
<path fill-rule="evenodd" clip-rule="evenodd" d="M21.6841 8.93037L19.3619 8.56843C19.1494 7.72918 18.8029 6.93895 18.3443 6.22228L19.7172 4.39813C19.8249 4.25537 19.8074 4.05926 19.6779 3.93525L17.8769 2.21637C17.7473 2.09236 17.5406 2.0765 17.3921 2.17888L15.482 3.48967C14.7307 3.05129 13.9038 2.72107 13.0244 2.51775L12.6444 0.30138C12.6153 0.128339 12.4581 0 12.2732 0H9.72682C9.54192 0 9.38614 0.126897 9.35557 0.30138L8.97558 2.51775C8.09622 2.72107 7.26927 3.05129 6.51803 3.48967L4.6079 2.17888C4.45794 2.0765 4.25266 2.09236 4.12309 2.21637L2.32215 3.93525C2.19257 4.05926 2.1751 4.25537 2.28284 4.39813L3.65575 6.22228C3.19569 6.93895 2.85064 7.72918 2.63808 8.56843L0.315929 8.93037C0.133942 8.95921 0 9.10918 0 9.28511V11.7163C0 11.8923 0.133942 12.0422 0.315929 12.0711L2.63808 12.433C2.85064 13.2723 3.19714 14.0625 3.65575 14.7792L2.28284 16.6033C2.1751 16.7461 2.19257 16.9422 2.32215 17.0662L4.12309 18.7851C4.25266 18.9091 4.4594 18.9249 4.6079 18.8226L6.51803 17.5118C7.26927 17.9501 8.09622 18.2804 8.97558 18.4837L9.35557 20.7001C9.38469 20.8731 9.54192 21.0014 9.72682 21.0014H12.2732C12.4566 21.0014 12.6139 20.8745 12.6444 20.7001L13.0244 18.4837C13.9038 18.2804 14.7307 17.9501 15.482 17.5118L17.3921 18.8226C17.5421 18.9249 17.7473 18.9091 17.8769 18.7851L19.6779 17.0662C19.8074 16.9422 19.8249 16.7461 19.7172 16.6033L18.3443 14.7792C18.8043 14.0625 19.1494 13.2723 19.3619 12.433L21.6841 12.0711C21.8661 12.0422 22 11.8923 22 11.7163V9.28511C22 9.10918 21.8661 8.95921 21.6841 8.93037ZM10.9993 14.2673C8.82126 14.2673 7.05235 12.5801 7.05235 10.5007C7.05235 8.42134 8.82126 6.73419 10.9993 6.73419C13.1773 6.73419 14.9462 8.42278 14.9462 10.5007C14.9462 12.5787 13.1773 14.2673 10.9993 14.2673Z" fill="#AAAFBE"/>
</g>
<defs>
<clipPath id="clip0_218_1271">
<rect width="22" height="21" fill="white"/>
</clipPath>
</defs>
</svg>
