<svg width="14" height="21" viewBox="0 0 14 21" fill="none" xmlns="http://www.w3.org/2000/svg">
<g clip-path="url(#clip0_218_1273)">
<path fill-rule="evenodd" clip-rule="evenodd" d="M3.38 1.04001L7.07 0.460006C10.29 -0.0499942 11.9 -0.299994 12.95 0.600006C14 1.50001 14 3.13001 14 6.39001V9.37001H8.08L10.78 5.99001L9.22 4.74001L5.22 9.74001L4.72 10.36L5.22 10.98L9.22 15.98L10.78 14.73L8.08 11.35H14V14.33C14 17.59 14 19.22 12.95 20.12C11.9 21.02 10.29 20.77 7.07 20.26L3.38 19.68C1.77 19.43 0.96 19.3 0.48 18.74C0 18.18 0 17.36 0 15.73V4.99001C0 3.36001 0 2.54001 0.48 1.98001C0.96 1.42001 1.77 1.29001 3.38 1.04001Z" fill="#AAAFBE"/>
</g>
<defs>
<clipPath id="clip0_218_1273">
<rect width="14" height="20.74" fill="white"/>
</clipPath>
</defs>
</svg>
