<svg width="115" height="115" viewBox="0 0 115 115" fill="none" xmlns="http://www.w3.org/2000/svg">
<g clip-path="url(#clip0_206_975)">
<mask id="mask0_206_975" style="mask-type:luminance" maskUnits="userSpaceOnUse" x="0" y="0" width="115" height="115">
<path d="M115 0H0V115H115V0Z" fill="white"/>
</mask>
<g mask="url(#mask0_206_975)">
<path d="M111.71 0.629883H88.17C85.91 0.629883 84.78 3.35988 86.38 4.94988L93.69 12.2699L51 54.9599L36.05 40.0099L32.04 35.9999C30.68 34.6399 28.49 34.6399 27.13 35.9999L1.65 61.4899C0.290005 62.8499 0.290005 65.0399 1.65 66.3999L5.66 70.4099C7.02 71.7699 9.21 71.7699 10.57 70.4099L29.59 51.3899L48.52 70.3199C49.88 71.6799 52.07 71.6799 53.43 70.3199L55.47 68.2799C55.57 68.1999 55.68 68.1199 55.78 68.0299L102.61 21.1999L109.93 28.5199C111.53 30.1199 114.25 28.9899 114.25 26.7299V3.15988C114.25 1.75988 113.12 0.629883 111.72 0.629883H111.71Z" fill="white" fill-opacity="0.25"/>
<path d="M83.47 48.3498V114.24H101.5V30.3198L83.47 48.3498Z" fill="white" fill-opacity="0.25"/>
<path d="M60.11 71.7097V114.23H78.14V53.6797L60.11 71.7097Z" fill="white" fill-opacity="0.25"/>
<path d="M48.83 76.7598C47.12 76.3598 45.58 75.4198 44.33 74.1698L36.73 66.5698V114.24H54.76V76.1698C52.96 76.9898 50.92 77.2398 48.83 76.7498V76.7598Z" fill="white" fill-opacity="0.25"/>
<path d="M29.59 59.4097L14.59 74.4097C14.21 74.7897 13.81 75.1197 13.38 75.4197V114.23H31.41V61.2197L29.6 59.4097H29.59Z" fill="white" fill-opacity="0.25"/>
</g>
</g>
<defs>
<clipPath id="clip0_206_975">
<rect width="115" height="115" fill="white"/>
</clipPath>
</defs>
</svg>
