<svg width="22" height="19" viewBox="0 0 22 19" fill="none" xmlns="http://www.w3.org/2000/svg">
<g clip-path="url(#clip0_218_1261)">
<path d="M10.9961 8.23282C13.2949 8.23282 15.1585 6.38984 15.1585 4.11641C15.1585 1.84298 13.2949 0 10.9961 0C8.6973 0 6.83374 1.84298 6.83374 4.11641C6.83374 6.38984 8.6973 8.23282 10.9961 8.23282Z" fill="#AAAFBE"/>
<path d="M18.2803 10.0607C20.0301 10.0607 21.4486 8.65779 21.4486 6.92727C21.4486 5.19675 20.0301 3.79388 18.2803 3.79388C16.5304 3.79388 15.1119 5.19675 15.1119 6.92727C15.1119 8.65779 16.5304 10.0607 18.2803 10.0607Z" fill="#AAAFBE"/>
<path fill-rule="evenodd" clip-rule="evenodd" d="M16.0127 11.3432C16.6495 10.867 17.426 10.6059 18.2337 10.6059H18.2725C18.7307 10.6059 19.1888 10.675 19.6159 10.8363C21.0992 11.4046 21.9922 12.7793 21.9922 14.2385V16.1124C21.9922 17.1568 21.138 18.0016 20.0819 18.0016H18.4666C17.4105 18.0016 16.5563 17.1568 16.5563 16.1124V13.6932C16.5563 12.8715 16.3699 12.0728 16.0205 11.3432H16.0127Z" fill="#AAAFBE"/>
<path d="M3.7197 10.0607C5.46955 10.0607 6.88808 8.65779 6.88808 6.92727C6.88808 5.19675 5.46955 3.79388 3.7197 3.79388C1.96986 3.79388 0.551331 5.19675 0.551331 6.92727C0.551331 8.65779 1.96986 10.0607 3.7197 10.0607Z" fill="#AAAFBE"/>
<path fill-rule="evenodd" clip-rule="evenodd" d="M8.02191 19C6.96579 19 6.11157 18.1552 6.11157 17.1107V13.747C6.11157 13.0865 6.25135 12.4337 6.51538 11.8347C7.02792 10.6673 8.00638 9.70735 9.34207 9.22352C9.86237 9.0392 10.4137 8.9624 10.9651 8.9624C11.5708 8.9624 12.1765 9.0392 12.7434 9.25424C14.0325 9.74575 14.9877 10.6904 15.4924 11.8347C15.7565 12.4337 15.8963 13.0788 15.8963 13.747V17.1107C15.8963 18.1552 15.042 19 13.9859 19H8.02968H8.02191Z" fill="#AAAFBE"/>
<path fill-rule="evenodd" clip-rule="evenodd" d="M3.52559 18.0093H1.91034C0.854218 18.0093 0 17.1645 0 16.1124V14.2922C0 13.8391 0.062125 13.386 0.232969 12.9559C0.807624 11.4814 2.19767 10.5982 3.6809 10.5982H3.76633C4.57395 10.5982 5.35051 10.8593 5.98729 11.3355C5.63784 12.0651 5.45147 12.8638 5.45147 13.6855V16.1047C5.45147 17.1491 4.59725 17.9939 3.54112 17.9939L3.52559 18.0093Z" fill="#AAAFBE"/>
</g>
<defs>
<clipPath id="clip0_218_1261">
<rect width="22" height="19" fill="white"/>
</clipPath>
</defs>
</svg>
