<svg width="17" height="20" viewBox="0 0 17 20" fill="none" xmlns="http://www.w3.org/2000/svg">
<g clip-path="url(#clip0_195_657)">
<path d="M8.42009 9.66C11.0876 9.66 13.2501 7.49754 13.2501 4.83C13.2501 2.16246 11.0876 0 8.42009 0C5.75255 0 3.59009 2.16246 3.59009 4.83C3.59009 7.49754 5.75255 9.66 8.42009 9.66Z" fill="#F2B951"/>
<path d="M0.620035 15.1601C1.42003 12.4001 4.15003 10.8701 7.02003 10.8701H9.82003C12.69 10.8701 15.42 12.4001 16.22 15.1601C16.51 16.1401 16.74 17.2301 16.83 18.3301C16.88 18.8801 16.42 19.3301 15.87 19.3301H0.960035C0.410035 19.3301 -0.0399652 18.8801 3.47609e-05 18.3301C0.0900348 17.2201 0.330035 16.1401 0.610035 15.1601H0.620035Z" fill="#F2B951"/>
</g>
<defs>
<clipPath id="clip0_195_657">
<rect width="16.84" height="19.33" fill="white"/>
</clipPath>
</defs>
</svg>
